<svg version="1.2" baseProfile="tiny-ps" xmlns="http://www.w3.org/2000/svg" viewBox="0 0 703 703" width="703" height="703">
	<title>undraw_pay_online_b-1-hk-svg</title>
	<style>
		tspan { white-space:pre }
		.shp0 { fill: #2f2e41 } 
		.shp1 { fill: #a0616a } 
		.shp2 { fill: #3f3d56 } 
		.shp3 { fill: #d0cde1 } 
		.shp4 { opacity: 0.149;fill: #000000 } 
	</style>
	<path id="Layer" class="shp0" d="M407.01 295.03L417.01 450.03C417.01 450.03 441.01 511.03 440.01 569.03C440.01 569.03 431.01 592.03 438.01 596.03C445.01 600.03 449.01 603.03 445.01 606.03C441.01 609.03 438.01 616.03 441.01 618.03C444.01 620.03 445.01 623.03 444.01 623.03L414.01 623.03C414.01 623.03 420.01 608.03 411.01 604.03C402.01 600.03 407.01 590.03 407.01 590.03L340.01 394.03L287.01 574.03C287.01 574.03 296.01 580.03 289.01 583.03C282.01 586.03 279.01 580.03 282.01 586.03C285.01 592.03 281.01 595.03 281.01 596.03C281.01 597.03 251.01 593.03 251.01 593.03C251.01 593.03 266.01 580.03 259.01 577.03C252.01 574.03 249.01 571.03 251.01 569.03C253.01 567.03 261.01 548.03 261.01 548.03C261.01 548.03 265.01 476.03 266.01 473.03C267.01 470.03 266.01 456.03 266.01 449.03C266.01 442.03 265.01 414.03 268.01 407.03C271.01 400.03 274.01 314.03 290.01 304.03C306.01 294.03 407.01 295.03 407.01 295.03Z" />
	<path id="Layer" class="shp0" d="M280.01 591.03C280.01 591.03 300.01 632.03 286.01 637.03C272.01 642.03 254.01 638.03 250.01 644.03C246.01 650.03 202.01 657.03 201.01 642.03C200.01 627.03 249.01 599.03 249.01 599.03L255.39 588.75L280.01 591.03Z" />
	<path id="Layer" class="shp0" d="M442.01 621.03C442.01 621.03 462.01 662.03 448.01 667.03C434.01 672.03 416.01 668.03 412.01 674.03C408.01 680.03 364.01 687.03 363.01 672.03C362.01 657.03 411.01 629.03 411.01 629.03L417.39 618.75L442.01 621.03Z" />
	<path id="Layer" class="shp1" d="M349.51 106.53C331.26 106.53 316.51 91.77 316.51 73.53C316.51 55.28 331.26 40.53 349.51 40.53C367.76 40.53 382.51 55.28 382.51 73.53C382.51 91.77 367.76 106.53 349.51 106.53Z" />
	<path id="Layer" class="shp1" d="M372.01 91.03L368.01 120.03L338.01 143.03L330.01 132.03L330.01 94.03L372.01 91.03L372.01 91.03Z" />
	<path id="Layer" class="shp2" d="M325.01 128.03C325.01 128.03 356.01 131.03 372.01 120.03L404.01 309.03C404.01 309.03 291.01 318.03 286.01 312.03L286.01 253.03L306.01 157.03L325.01 128.03Z" />
	<path id="Layer" class="shp3" d="M369.26 110.99L380.01 120.03C380.01 120.03 424.01 127.03 421.01 139.03L409.01 281.03L413.01 329.03C413.01 329.03 379.01 320.03 353.01 329.03C327.01 338.03 347.67 135.62 347.67 135.62C347.67 135.62 371.5 113.95 369.26 110.99Z" />
	<path id="Layer" class="shp3" d="M286.01 335.03C283.01 330.03 277.01 333.03 277.01 333.03C277.01 333.03 290.01 175.03 294.01 160.03C298.01 145.03 330.01 121.93 330.01 121.93C335.01 129.84 289.01 340.03 286.01 335.03Z" />
	<path id="Layer" class="shp0" d="M316.53 72.09C316.53 72.09 312.95 66.73 314.33 60.96C314.53 60.14 314.71 59.32 314.85 58.48C314.99 57.65 315.11 56.82 315.19 55.98C315.27 55.14 315.31 54.3 315.33 53.46C315.35 52.61 315.34 51.77 315.29 50.93C315.24 50.09 318.18 41.58 321.06 36.36C323.95 31.14 322.57 28.94 331.64 27.29C340.71 25.65 337 13.83 360.91 26.61C361.31 27.17 361.79 27.67 362.34 28.08C362.88 28.5 363.49 28.84 364.13 29.08C364.78 29.33 365.45 29.47 366.14 29.52C366.83 29.57 367.52 29.51 368.19 29.36C373.14 28.39 374.92 35.26 374.92 35.26C374.92 35.26 378.22 33.34 379.46 36.09C380.69 38.84 389.51 34.44 389.51 52.99C389.51 71.54 379.48 88.11 379.48 88.11C379.48 88.11 380.21 56.9 363.86 53.74C347.51 50.58 329.92 41.38 325.66 53.19C325.09 54.85 324.47 56.49 323.8 58.11C323.13 59.73 322.41 61.33 321.65 62.91C320.88 64.49 320.07 66.04 319.22 67.57C318.37 69.1 317.47 70.61 316.53 72.09L316.53 72.09Z" />
	<path id="Layer" class="shp1" d="M379.84 79.51C378.05 79.51 376.61 77.58 376.61 75.21C376.61 72.83 378.05 70.91 379.84 70.91C381.62 70.91 383.06 72.83 383.06 75.21C383.06 77.58 381.62 79.51 379.84 79.51Z" />
	<path id="Layer" class="shp3" d="M257.74 401.19C254.12 401.55 244.59 401.92 236.66 397.15C228.75 392.39 224.6 383.79 223.22 380.42C226.85 380.05 236.39 379.69 244.3 384.45C252.21 389.21 256.36 397.82 257.74 401.19Z" />
	<path id="Layer" class="shp3" d="M281.48 478.87C284.43 478.88 287.26 480.05 289.35 482.14C291.43 484.22 292.6 487.05 292.6 490C292.6 492.95 291.43 495.78 289.35 497.87C287.26 499.95 284.43 501.13 281.48 501.13L232.03 501.13C229.08 501.13 226.25 499.96 224.16 497.87C222.07 495.78 220.9 492.95 220.9 490C220.9 487.05 222.07 484.22 224.16 482.13C226.25 480.05 229.08 478.87 232.03 478.87L281.48 478.87L281.48 478.87Z" />
	<path id="Layer" fill-rule="evenodd" class="shp3" d="M505.44 361.42C508.66 361.42 511.86 362.05 514.84 363.29C517.82 364.52 520.52 366.33 522.81 368.61C525.09 370.89 526.9 373.6 528.13 376.58C529.36 379.56 530 382.75 530 385.98L530 521.08C530 524.3 529.36 527.5 528.13 530.48C526.9 533.46 525.09 536.16 522.81 538.44C520.52 540.73 517.82 542.53 514.84 543.77C511.86 545 508.66 545.64 505.44 545.64L228.15 545.64C224.93 545.64 221.73 545 218.75 543.77C215.77 542.53 213.07 540.73 210.78 538.44C208.5 536.16 206.69 533.46 205.46 530.48C204.23 527.5 203.59 524.3 203.59 521.08L203.59 385.98C203.59 382.75 204.23 379.56 205.46 376.58C206.69 373.6 208.5 370.89 210.78 368.61C213.07 366.33 215.77 364.52 218.75 363.29C221.73 362.05 224.93 361.42 228.15 361.42L505.44 361.42ZM219.9 378.42L220.33 379.77C220.5 380.3 224.63 392.8 235.38 399.27C241.69 403.07 248.77 403.87 253.65 403.87C254.15 403.88 254.66 403.87 255.16 403.86C255.66 403.84 256.17 403.81 256.67 403.78C257.17 403.74 257.67 403.69 258.17 403.64C258.67 403.58 259.17 403.51 259.67 403.43L261.06 403.19L260.63 401.84C260.46 401.31 256.33 388.8 245.58 382.33C234.82 375.86 221.84 378.07 221.29 378.17L219.9 378.42ZM281.48 503.6C285.09 503.6 288.55 502.17 291.1 499.62C293.65 497.07 295.08 493.61 295.08 490C295.08 486.39 293.65 482.93 291.1 480.38C288.55 477.83 285.09 476.4 281.48 476.4L232.03 476.4C228.42 476.4 224.96 477.83 222.41 480.38C219.86 482.93 218.43 486.39 218.43 490C218.43 493.61 219.86 497.07 222.41 499.62C224.96 502.17 228.42 503.6 232.03 503.6L281.48 503.6ZM506.51 478.87C506.5 476.93 506.12 475 505.37 473.2C504.62 471.4 503.53 469.77 502.15 468.4C500.77 467.02 499.14 465.93 497.34 465.18C495.55 464.43 493.62 464.04 491.67 464.04L454.58 464.04C452.63 464.04 450.71 464.43 448.91 465.18C447.11 465.93 445.48 467.02 444.1 468.4C442.72 469.77 441.63 471.4 440.88 473.2C440.14 475 439.75 476.93 439.74 478.87L439.74 501.13C439.75 503.08 440.14 505 440.88 506.8C441.63 508.6 442.72 510.23 444.1 511.61C445.48 512.98 447.11 514.08 448.91 514.82C450.71 515.57 452.63 515.96 454.58 515.97L491.67 515.97C493.62 515.96 495.55 515.57 497.34 514.82C499.14 514.08 500.77 512.98 502.15 511.61C503.53 510.23 504.62 508.6 505.37 506.8C506.12 505 506.5 503.08 506.51 501.13L506.51 478.87Z" />
	<path id="Layer" fill-rule="evenodd" class="shp3" d="M466.33 496.8C467.47 496.8 468.57 497.26 469.39 498.07C470.2 498.88 470.65 499.98 470.65 501.13C470.65 502.28 470.2 503.38 469.39 504.19C468.57 505 467.47 505.46 466.33 505.46L450.25 505.46C449.1 505.46 448 505 447.19 504.19C446.38 503.38 445.92 502.28 445.92 501.13C445.92 499.98 446.38 498.88 447.19 498.07C448 497.26 449.1 496.8 450.25 496.8C450.25 496.8 466.33 496.8 466.33 496.8ZM466.33 502.98C466.82 502.98 467.29 502.79 467.64 502.44C467.99 502.09 468.18 501.62 468.18 501.13C468.18 500.64 467.99 500.16 467.64 499.82C467.29 499.47 466.82 499.27 466.33 499.27L450.25 499.27C449.76 499.27 449.29 499.47 448.94 499.82C448.59 500.16 448.39 500.64 448.39 501.13C448.39 501.62 448.59 502.09 448.94 502.44C449.29 502.79 449.76 502.98 450.25 502.98L466.33 502.98Z" />
	<path id="Layer" fill-rule="evenodd" class="shp3" d="M496 496.8C497.15 496.8 498.25 497.26 499.06 498.07C499.87 498.88 500.33 499.98 500.33 501.13C500.33 502.28 499.87 503.38 499.06 504.19C498.25 505 497.15 505.46 496 505.46L479.93 505.46C478.78 505.46 477.67 505 476.86 504.19C476.05 503.38 475.59 502.28 475.59 501.13C475.59 499.98 476.05 498.88 476.86 498.07C477.67 497.25 478.78 496.8 479.93 496.8C479.93 496.8 496 496.8 496 496.8ZM497.31 502.44C497.65 502.09 497.85 501.62 497.85 501.13C497.85 500.64 497.65 500.17 497.31 499.82C496.96 499.47 496.49 499.28 496 499.27L479.93 499.27C479.43 499.27 478.96 499.47 478.61 499.82C478.26 500.16 478.07 500.64 478.07 501.13C478.07 501.62 478.26 502.09 478.61 502.44C478.96 502.79 479.43 502.98 479.93 502.98L496 502.98C496.49 502.98 496.96 502.79 497.31 502.44Z" />
	<path id="Layer" fill-rule="evenodd" class="shp3" d="M469.39 486.94C470.2 487.75 470.66 488.85 470.66 490C470.66 491.15 470.2 492.25 469.39 493.06C468.58 493.88 467.47 494.33 466.33 494.33L450.25 494.33C449.1 494.33 448 493.87 447.19 493.06C446.38 492.25 445.92 491.15 445.92 490C445.92 488.85 446.38 487.75 447.19 486.94C448 486.13 449.1 485.67 450.25 485.67L466.33 485.67C467.47 485.67 468.58 486.13 469.39 486.94ZM466.33 491.86C466.82 491.86 467.29 491.66 467.64 491.31C467.98 490.96 468.18 490.49 468.18 490C468.18 489.51 467.98 489.04 467.64 488.69C467.29 488.34 466.82 488.15 466.33 488.15L450.25 488.15C449.76 488.15 449.29 488.34 448.94 488.69C448.59 489.04 448.4 489.51 448.4 490C448.4 490.49 448.59 490.96 448.94 491.31C449.29 491.66 449.76 491.86 450.25 491.86L466.33 491.86Z" />
	<path id="Layer" fill-rule="evenodd" class="shp3" d="M496 485.67C497.15 485.67 498.25 486.13 499.06 486.94C499.87 487.75 500.33 488.85 500.33 490C500.33 491.15 499.87 492.25 499.06 493.06C498.25 493.87 497.15 494.33 496 494.33L479.93 494.33C478.78 494.33 477.67 493.88 476.86 493.06C476.05 492.25 475.59 491.15 475.59 490C475.59 488.85 476.05 487.75 476.86 486.94C477.67 486.13 478.78 485.67 479.93 485.67C479.93 485.67 496 485.67 496 485.67ZM497.31 491.31C497.66 490.96 497.85 490.49 497.85 490C497.85 489.51 497.66 489.04 497.31 488.69C496.96 488.34 496.49 488.15 496 488.15L479.93 488.15C479.43 488.15 478.96 488.34 478.61 488.69C478.27 489.04 478.07 489.51 478.07 490C478.07 490.49 478.27 490.96 478.61 491.31C478.96 491.66 479.43 491.86 479.93 491.86L496 491.86C496.49 491.86 496.96 491.66 497.31 491.31Z" />
	<path id="Layer" fill-rule="evenodd" class="shp3" d="M466.33 474.55C467.47 474.55 468.57 475 469.39 475.81C470.2 476.63 470.65 477.73 470.65 478.87C470.65 480.02 470.2 481.12 469.39 481.93C468.57 482.74 467.47 483.2 466.33 483.2L450.25 483.2C449.1 483.2 448 482.74 447.19 481.93C446.38 481.12 445.92 480.02 445.92 478.87C445.92 477.73 446.38 476.63 447.19 475.81C448 475 449.1 474.55 450.25 474.55C450.25 474.55 466.33 474.55 466.33 474.55ZM466.33 480.73C466.82 480.73 467.29 480.53 467.64 480.18C467.98 479.84 468.18 479.37 468.18 478.87C468.18 478.38 467.98 477.91 467.64 477.56C467.29 477.21 466.82 477.02 466.33 477.02L450.25 477.02C449.76 477.02 449.29 477.21 448.94 477.56C448.59 477.91 448.4 478.38 448.4 478.87C448.4 479.37 448.59 479.84 448.94 480.18C449.29 480.53 449.76 480.73 450.25 480.73L466.33 480.73Z" />
	<path id="Layer" fill-rule="evenodd" class="shp3" d="M496 474.55C497.15 474.55 498.24 475 499.05 475.82C499.86 476.63 500.32 477.73 500.32 478.87C500.32 480.02 499.86 481.12 499.05 481.93C498.24 482.74 497.15 483.2 496 483.2L479.93 483.2C478.78 483.2 477.67 482.75 476.86 481.94C476.05 481.12 475.59 480.02 475.59 478.87C475.59 477.72 476.05 476.62 476.86 475.81C477.67 475 478.78 474.54 479.93 474.55L496 474.55ZM497.31 480.18C497.66 479.84 497.85 479.37 497.85 478.87C497.85 478.38 497.66 477.91 497.31 477.56C496.96 477.21 496.49 477.02 496 477.02L479.93 477.02C479.43 477.02 478.96 477.21 478.61 477.56C478.27 477.91 478.07 478.38 478.07 478.87C478.07 479.37 478.27 479.84 478.61 480.18C478.96 480.53 479.43 480.73 479.93 480.73L496 480.73C496.49 480.73 496.96 480.53 497.31 480.18Z" />
	<path id="Layer" class="shp1" d="M418.01 331.03L410.84 354.42C410.84 354.42 409.01 398.03 385.01 392.03C361.01 386.03 392.01 335.03 392.01 335.03L399.01 324.03L418.01 331.03Z" />
	<path id="Layer" class="shp1" d="M282.01 331.03L274.84 354.42C274.84 354.42 273.01 398.03 249.01 392.03C225.01 386.03 256.01 335.03 256.01 335.03L263.01 324.03L282.01 331.03Z" />
	<path id="Layer" class="shp3" d="M413.01 132.03C413.01 132.03 429.01 128.03 434.01 155.03C439.01 182.03 445.01 259.03 445.01 259.03L421.01 340.03C421.01 340.03 397.01 327.03 392.01 329.03L410.9 258.7L395.01 187.03C395.01 187.03 409.01 132.03 413.01 132.03Z" />
	<path id="Layer" class="shp4" d="M389.75 188.39L410.75 258.39L389.75 329.39L401.75 258.39L389.75 188.39L389.75 188.39Z" />
	<path id="Layer" class="shp3" d="M284 340.29C277 335.29 258.01 329.03 258.01 329.03L294.01 187.03L284 340.29Z" />
</svg>